<?xml version="1.0" encoding="utf-8"?><svg width="21" height="20" fill="none" xmlns="http://www.w3.org/2000/svg" viewBox="0 0 21 20"><path d="M7.869 4.167H6.163c-.453 0-.887.175-1.207.488-.32.312-.5.736-.5 1.178v10c0 .442.18.866.5 1.179.32.312.754.488 1.207.488h8.531a1.73 1.73 0 001.207-.488c.32-.313.5-.737.5-1.179v-10c0-.442-.18-.866-.5-1.178a1.727 1.727 0 00-1.207-.488h-1.706" stroke="currentColor" stroke-width="2" stroke-linecap="round" stroke-linejoin="round"/><path d="M11.282 2.5H9.575c-.942 0-1.706.746-1.706 1.667 0 .92.764 1.666 1.706 1.666h1.707c.942 0 1.706-.746 1.706-1.666 0-.92-.764-1.667-1.706-1.667zm-3.413 9.167l1.706 1.666L12.988 10" stroke="currentColor" stroke-width="2" stroke-linecap="round" stroke-linejoin="round"/></svg>