<?xml version="1.0" encoding="utf-8"?><svg width="21" height="20" fill="none" xmlns="http://www.w3.org/2000/svg" viewBox="0 0 21 20"><path d="M7.869 3.333H4.456a.843.843 0 00-.853.834V7.5c0 .46.382.833.853.833H7.87a.843.843 0 00.853-.833V4.167a.843.843 0 00-.853-.834zm8.531 0h-3.412a.843.843 0 00-.853.834V7.5c0 .46.382.833.853.833h3.413a.843.843 0 00.853-.833V4.167a.843.843 0 00-.853-.834zm-8.531 8.334H4.456a.843.843 0 00-.853.833v3.333c0 .46.382.834.853.834H7.87a.843.843 0 00.853-.834V12.5a.843.843 0 00-.853-.833zm8.531 0h-3.412a.843.843 0 00-.853.833v3.333c0 .46.382.834.853.834h3.413a.843.843 0 00.853-.834V12.5a.843.843 0 00-.853-.833z" stroke="currentColor" stroke-width="2" stroke-linecap="round" stroke-linejoin="round"/></svg>