<?xml version="1.0" encoding="utf-8"?><svg viewBox="0 0 22 23" xmlns="http://www.w3.org/2000/svg" xmlns:xlink="http://www.w3.org/1999/xlink"><style>:root>svg{display:none}:root>svg:target{display:block}</style><svg fill="none" viewBox="0 0 10 10" id="icon_arrow_bottom" xmlns="http://www.w3.org/2000/svg"><path d="M9.78 3.257L5.673 8.42c-.39.473-.99.473-1.364 0L.202 3.257c-.39-.488-.195-.863.406-.863h8.766c.617 0 .795.375.406.863z" fill="#000"/></svg><svg fill="none" viewBox="0 0 10 10" id="icon_arrow_bottom_gray" xmlns="http://www.w3.org/2000/svg"><path d="M9.78 3.257L5.673 8.42c-.39.473-.99.473-1.364 0L.202 3.257c-.39-.488-.195-.863.406-.863h8.766c.617 0 .795.375.406.863z" fill="#959595"/></svg><svg fill="none" viewBox="0 0 22 22" id="icon_basket" xmlns="http://www.w3.org/2000/svg"><path d="M6.417 9.167L11 3.667l4.583 5.5M19.25 9.167L17.417 16.5c-.086.525-.316.997-.651 1.332-.335.335-.754.512-1.183.501H6.417c-.43.011-.848-.166-1.183-.501-.335-.335-.565-.807-.65-1.332L2.75 9.167h16.5z" stroke="#335A4A" stroke-width="2" stroke-linecap="round" stroke-linejoin="round"/><path d="M11 15.583a1.833 1.833 0 100-3.666 1.833 1.833 0 000 3.666z" stroke="#335A4A" stroke-width="2" stroke-linecap="round" stroke-linejoin="round"/></svg><svg fill="none" viewBox="0 0 22 22" id="icon_bell" xmlns="http://www.w3.org/2000/svg"><path d="M9.167 4.583a1.833 1.833 0 113.666 0 6.416 6.416 0 013.667 5.5v2.75a3.666 3.666 0 001.833 2.75H3.667a3.665 3.665 0 001.833-2.75v-2.75a6.417 6.417 0 013.667-5.5M8.25 15.583v.917a2.75 2.75 0 105.5 0v-.917" stroke="#335A4A" stroke-width="2" stroke-linecap="round" stroke-linejoin="round"/></svg><svg fill="none" viewBox="0 0 21 20" id="icon_catalog" xmlns="http://www.w3.org/2000/svg"><path d="M7.869 3.333H4.456a.843.843 0 00-.853.834V7.5c0 .46.382.833.853.833H7.87a.843.843 0 00.853-.833V4.167a.843.843 0 00-.853-.834zm8.531 0h-3.412a.843.843 0 00-.853.834V7.5c0 .46.382.833.853.833h3.413a.843.843 0 00.853-.833V4.167a.843.843 0 00-.853-.834zm-8.531 8.334H4.456a.843.843 0 00-.853.833v3.333c0 .46.382.834.853.834H7.87a.843.843 0 00.853-.834V12.5a.843.843 0 00-.853-.833zm8.531 0h-3.412a.843.843 0 00-.853.833v3.333c0 .46.382.834.853.834h3.413a.843.843 0 00.853-.834V12.5a.843.843 0 00-.853-.833z" stroke="currentColor" stroke-width="2" stroke-linecap="round" stroke-linejoin="round"/></svg><svg fill="none" viewBox="0 0 18 18" id="icon_check_green" xmlns="http://www.w3.org/2000/svg"><path fill-rule="evenodd" clip-rule="evenodd" d="M18 9A9 9 0 110 9a9 9 0 0118 0zM4.497 8.767a1 1 0 011.414 0l1.668 1.668 4.51-4.51a1 1 0 111.414 1.414l-5.217 5.217a1 1 0 01-1.414 0l-2.375-2.375a1 1 0 010-1.414z" fill="#74AD96"/></svg><svg fill="none" viewBox="0 0 19 23" id="icon_flag" xmlns="http://www.w3.org/2000/svg"><path d="M.875 2.875A2.875 2.875 0 013.75 0h11.5a2.875 2.875 0 012.875 2.875v19.406a.72.72 0 01-1.117.598L9.5 18.833l-7.508 4.046a.718.718 0 01-1.117-.598V2.875z" fill="#F27777"/></svg><svg fill="none" viewBox="0 0 21 20" id="icon_gear" xmlns="http://www.w3.org/2000/svg"><path d="M10.428 12.5c1.414 0 2.56-1.12 2.56-2.5s-1.146-2.5-2.56-2.5C9.015 7.5 7.87 8.62 7.87 10s1.146 2.5 2.56 2.5z" stroke="currentColor" stroke-width="2" stroke-linecap="round" stroke-linejoin="round"/><path d="M5.31 5h2.986l2.133-2.083L12.56 5h2.986v2.917L17.68 10l-2.133 2.083V15h-2.986l-2.133 2.083L8.296 15H5.309v-2.917L3.177 10l2.132-2.083V5z" stroke="currentColor" stroke-width="2" stroke-linecap="round" stroke-linejoin="round"/></svg><svg fill="none" viewBox="0 0 21 20" id="icon_my" xmlns="http://www.w3.org/2000/svg"><path d="M7.869 4.167H6.163c-.453 0-.887.175-1.207.488-.32.312-.5.736-.5 1.178v10c0 .442.18.866.5 1.179.32.312.754.488 1.207.488h8.531a1.73 1.73 0 001.207-.488c.32-.313.5-.737.5-1.179v-10c0-.442-.18-.866-.5-1.178a1.727 1.727 0 00-1.207-.488h-1.706" stroke="currentColor" stroke-width="2" stroke-linecap="round" stroke-linejoin="round"/><path d="M11.282 2.5H9.575c-.942 0-1.706.746-1.706 1.667 0 .92.764 1.666 1.706 1.666h1.707c.942 0 1.706-.746 1.706-1.666 0-.92-.764-1.667-1.706-1.667zm-3.413 9.167l1.706 1.666L12.988 10" stroke="currentColor" stroke-width="2" stroke-linecap="round" stroke-linejoin="round"/></svg></svg>